<svg xmlns="http://www.w3.org/2000/svg" height="24px" viewBox="0 -960 960 960" width="24px">
  <defs>
    <linearGradient id="grad" x1="0%" y1="0%" x2="0%" y2="100%">
      <stop offset="0%" style="stop-color:#FF9100" />
      <stop offset="100%" style="stop-color:#FF3C00" />
    </linearGradient>
  </defs>
  <path d="M480-80 80-680q85-72 186.5-116T480-840q112 0 213.5 43.5T880-680L480-80Zm0-144 292-438q-65-45-139-71.5T480-760q-79 0-152.5 26.5T188-662l292 438ZM380-560q25 0 42.5-17.5T440-620q0-25-17.5-42.5T380-680q-25 0-42.5 17.5T320-620q0 25 17.5 42.5T380-560Zm100 200q25 0 42.5-17.5T540-420q0-25-17.5-42.5T480-480q-25 0-42.5 17.5T420-420q0 25 17.5 42.5T480-360Zm0 136Z" fill="url(#grad)"/>
</svg>